
<?xml version="1.0" encoding="utf-8"?><svg xmlns="http://www.w3.org/2000/svg" width="258" height="330" viewBox="0 0 258 330">
    <g fill="none" fill-rule="evenodd">
        <g>
            <g>
                <g fill-rule="nonzero">
                    <path fill="#ADD9FC" d="M8.409 50.117L13.318 58.266 32.955 50.932 52.182 58.266 57.909 50.117 32.136 41.968z" transform="translate(132.136 42) translate(18.455)"/>
                    <path fill="#26303B" d="M56.273 59.08l9.409-8.556-33.546-9.371-31.5 9.371 10.637 9.78 20.863-6.52 24.137 5.297zM7.182 51.748l24.954-7.334 27 7.741-4.5 4.075-22.909-5.705-20.045 5.705-4.5-4.482z" transform="translate(132.136 42) translate(18.455)"/>
                    <path fill="#26303B" d="M33.773 29.337c9-1.63 13.5-6.52 13.5-14.669C47.273 3.668 40.727 0 30.5 0c-5.318 0-8.182 1.63-11.045 4.89-2.864 2.852-4.091 6.926-2.864 11.816l3.273-.815c-1.228-3.667 0-6.52 2.454-9.372 2.046-2.444 4.91-3.667 9-3.667 8.182 0 13.091 2.852 13.091 11.816 0 7.335-4.09 11.002-12.682 12.224h-1.636v15.89h3.273l.409-13.445z" transform="translate(132.136 42) translate(18.455)"/>
                </g>
                <g>
                    <path fill="#ADD9FC" d="M19.91 121.051c15.954 4.89 27.817 7.334 34.772 7.334 6.954 0 16.773-2.444 28.227-7.334-3.273-14.26-5.318-26.077-5.318-35.448 0-9.372 1.636-24.04 5.318-44.005 1.636 21.187 2.455 37.078 3.273 47.672.818 10.594 1.227 27.3 2.045 49.302h9.41c3.272-30.152 4.908-52.154 4.09-66.008-.409-10.594-.409-26.077-3.682-42.783-.818-3.667-2.454-9.371-5.727-16.705-2.948-2.371-5.334-4.058-7.159-5.059-2.63-1.443-6.925-3.424-12.886-5.942-2.046 5.704-4.091 9.371-5.728 11-5.727 6.113-11.045 6.928-14.727 6.928-3.682 0-11.114-1.223-16.432-6.927-1.636-2.037-4.431-5.297-5.659-10.187-13.09 5.705-19.636 8.964-19.636 8.964-2.864 6.52-4.91 12.632-5.318 17.521-2.046 16.298-2.455 35.449-2.864 44.005-.818 15.076.41 36.671 2.864 65.193H15c1.636-61.526 2.455-93.307 3.273-95.752.818-2.445 2.045-.815 3.682 5.704 2.454 16.706 3.681 28.93 3.272 37.079-.409 7.741-1.636 19.965-5.318 35.448z" transform="translate(132.136 42) translate(0 44.783)"/>
                    <path fill="#26303B" fill-rule="nonzero" d="M23.182 51.377c-2.046-1.63-2.864-4.482-1.227-6.927 0-.815-.41-2.037-.819-2.037-.409-.408-.818-.408-1.227-.815-.818-.408-1.636.407-1.636 1.222-.818 5.704-.41 9.779-.818 13.446.818 1.63 1.227 2.445.409 4.075l.409 1.63c.818 0 1.636-.816 1.636-1.63v-2.038c0-2.852.41-5.704.818-9.371.818 2.037 1.637 3.667 2.046 5.704 0-.407.409-1.222.409-1.63v-.815-.814z" transform="translate(132.136 42) translate(0 44.783)"/>
                    <path fill="#26303B" fill-rule="nonzero" d="M101.727 45.265c-.409-8.557-1.227-15.484-2.454-20.78-2.046-8.557-4.5-13.039-8.591-15.484-2.455-1.63-5.727-2.852-8.182-4.482-2.864-1.63-6.136-2.852-9.41-3.667h-.408c-.818-.407-1.637.408-2.046 1.223-1.227 4.482-3.681 8.556-7.363 11.408C60 16.335 55.5 17.965 51 17.965s-9-2.037-12.273-4.482C35.455 10.223 33 6.15 31.773 2.075c-.41-.815-1.228-1.223-2.046-1.223h-.409c-2.454 1.223-5.727 2.445-9.409 3.667-2.454 1.223-5.727 2.852-8.182 4.482-4.09 2.445-6.545 6.927-8.59 15.484C2.317 27.745 1.5 35.893 1.09 42.82v13.039c.409.407 0 .407.409.814.41-.814 2.045-1.222 2.045-1.63C5.182 41.599 5.182 31.82 6.41 24.486c2.046-7.742 3.682-11.817 6.955-13.446 2.454-1.63 5.727-2.853 8.181-4.075C24 5.742 26.864 4.927 28.91 3.704c1.636 4.482 4.5 8.557 7.773 11.41 4.09 3.259 9 5.296 13.909 5.296 5.727 0 9.818-1.63 13.909-4.89 3.682-2.852 6.136-8.149 7.773-12.63 2.045 1.222 5.727 2.037 8.59 3.667 2.455 1.63 5.728 2.852 8.182 4.482 3.273 2.037 4.91 6.111 6.546 13.446 1.227 5.296 2.317 12.045 3.136 20.194 2.863.407.546-.23 3 .586z" transform="translate(132.136 42) translate(0 44.783)"/>
                    <path stroke="#26303B" stroke-linecap="round" stroke-width="3.038" d="M82.91 43.227c-9.82 42.783 1.226 72.935 0 77.417M20.727 44.857c9.818 42.376-2.863 72.527-.818 76.602M20.318 121.459c1.227 0 30.273 15.076 62.182-.815M3.136 43.227c-5.318 53.784.819 90.863 1.637 95.345M19.5 50.97c-1.636 47.264-3.273 83.527-4.09 87.602" transform="translate(132.136 42) translate(0 44.783)"/>
                    <path stroke="#26303B" stroke-width="3.038" d="M5.182 138.572L15.818 138.572" transform="translate(132.136 42) translate(0 44.783)"/>
                    <path stroke="#26303B" stroke-linecap="round" stroke-width="3.038" d="M100.09 43.227c5.32 53.784-1.635 90.863-2.045 94.937M82.91 43.227c1.635 47.265 3.68 91.27 4.5 95.345l-4.5-95.345z" transform="translate(132.136 42) translate(0 44.783)"/>
                    <path stroke="#26303B" stroke-width="3.038" d="M97.636 138.572L87 138.572" transform="translate(132.136 42) translate(0 44.783)"/>
                </g>
            </g>
            <g>
                <path fill="#ADD9FC" d="M127.09 184.17v-68.86l6.955 9.779 25.773-23.225c-13.5-19.15-23.727-32.374-30.682-38.485-6.954-6.112-16.363-9.188-27.818-12.04l-6.954 2.038c-6.546 1.63-11.864 2.037-15.955 2.037-4.09-.408-9.818-2.037-17.59-5.705-13.092 4.075-23.728 8.964-30.683 14.669-6.954 5.704-16.772 18.335-28.636 37.486l24.955 22.002 7.772-6.52.818 67.23 92.046-.407z" transform="translate(18 54.224)"/>
                <path fill="#26303B" fill-rule="nonzero" d="M161.864 100.641c-.41-.407-.41-.407-.41-.815-.409-.815-.818-1.222-1.227-2.037 0 0 0-.407-.409-.407-.409-.408-.409-.815-.818-1.223-.818-1.222-1.636-2.037-2.045-3.26-.819-1.222-1.637-2.037-2.046-2.852-2.045-2.852-4.09-5.704-6.136-8.149-1.228-1.63-2.046-2.852-3.273-4.074-2.045-2.852-4.5-5.705-6.955-8.557-1.227-1.63-2.045-2.852-3.681-4.074-2.046-2.852-5.319-5.297-8.591-6.927-5.318-3.26-11.046-5.704-16.773-7.742-2.045-.815-4.09-1.63-6.136-2.037-1.228-.407-2.046-.407-2.864-.815-.41 0-.818 0-1.227.408-4.91 3.26-12.682 4.482-18.41 4.482-5.727 0-13.09-1.223-18.408-4.482h-1.637c-.818.407-2.045.407-2.454.815-2.046.814-4.091 1.222-6.137 2.037-5.727 2.037-11.863 4.482-16.772 7.741-2.864 2.038-5.728 4.075-8.182 6.927l-.41.408c-4.908 5.704-9.408 11.408-13.908 17.113-2.046 2.037-3.682 4.482-5.319 6.519l-.409.407c-2.045 2.038-3.272 4.482-4.909 6.52C1.5 97.789.273 99.01.273 100.64v.815c0 .408 0 .815.409 1.223 4.09 4.074 8.182 8.556 12.682 12.63 2.863 2.853 5.727 5.705 9 8.15 1.227 1.222 2.045 2.037 3.272 2.852.819.407 1.637 1.222 2.046 1.63.409.407 1.227 0 1.636-.408l4.091-4.074v61.933c0 .815.818 1.63 1.636 1.63h93.273c.818 0 1.637-.815 1.637-1.63v-62.748l3.681 3.667.41.407c.409.408.409.408.818.408H136.09c.409 0 .409-.408.818-.408.41-.407 1.227-.815 1.636-.815 1.228-.814 2.046-2.037 3.273-2.852 2.864-2.444 5.727-5.297 9-8.149 4.091-4.074 8.591-8.149 12.682-12.63.41-.408.41-.816.41-.816-2.046-.407-2.046-.815-2.046-.815zM131.268 70.73c.875-1.199 1.8-1.88 2.777-2.042 1.289 1.344 2.046 2.042 3.273 3.84 4.5 5.297 9 10.594 13.091 16.298.818.815 1.227 1.63 2.046 2.037-7.364 7.742-14.728 15.076-22.5 22.41V78.355c0-.815 0-5.828 1.313-7.626zm-65.95-18.167c4.91 2.037 10.637 2.852 15.955 2.852s11.045-.815 15.954-2.852l2.046-.815-.41 2.037c-.408 3.667-1.636 6.927-3.681 9.371-3.682 4.075-9 5.297-13.91 5.297-5.317 0-10.636-1.222-13.908-5.297-2.046-2.444-3.273-6.111-3.682-9.371l-.41-2.037 2.046.815zM33.41 118.569l-5.727 5.297-1.227-.815c-1.228-1.222-2.455-2.037-3.682-2.852-2.046-1.63-3.273-2.852-4.91-4.482-4.09-3.667-8.181-7.742-11.863-11.409-.818-.815-1.636-1.63-2.045-2.444l-.41-.408-.409-.407.41-1.223c.409-.407.409-.815.818-1.222 1.227-2.037 2.045-3.26 3.681-4.89l1.228-1.222 1.227 1.223c7.364 7.741 15.136 15.075 22.91 22.41l.408.407-.409 2.037zm0-5.297c-7.773-7.334-15.136-14.668-22.5-22.41.818-.815 1.227-1.63 2.046-2.037 4.09-5.704 9-10.594 13.09-16.298.819-1.222 2.046-2.037 2.455-3.26l.818-1.222 1.227 1.222c.819.815 1.637 2.038 2.046 2.852.409 1.223.818 2.445 1.227 4.075 0 .815.41 1.63.41 2.037v35.041h-.819zm93.582-41.56c-.818 2.037-.718 4.075-.718 6.112V184.577h-90V77.824c0-2.037-.41-4.075-1.228-5.705-.818-2.444-2.045-4.482-4.09-5.704 2.454-2.445 5.727-4.89 8.59-6.52 4.091-2.444 8.591-4.481 13.091-5.704 2.455-1.222 5.728-2.037 8.182-2.444 0 1.63 0 2.444.41 3.667.408 3.667 2.045 7.334 4.09 10.186 4.091 4.89 10.227 6.112 16.364 6.112 5.727 0 12.273-1.63 16.363-6.112 2.455-2.852 3.682-6.52 4.091-10.186 0-1.223.41-2.445.41-3.667 2.863.815 5.727 1.63 8.181 2.444 4.5 1.63 9 3.26 13.091 5.705 2.864 2.037 5.727 4.074 8.591 6.52-2.864.814-4.6 2.851-5.418 5.296zm31.19 29.744l-2.045 2.037c-4.09 4.075-7.772 7.742-11.863 11.41-1.637 1.629-3.273 2.851-4.91 4.481-1.227 1.223-2.045 2.037-3.681 2.852l-1.227.815-4.91-4.482-.818-.407v-2.037l.41-.408c7.772-7.334 15.136-14.668 22.908-22.41l1.228-1.222c.818.815 1.227 1.63 2.045 2.037 1.227 1.63 2.046 3.26 3.273 4.89l.818.814-1.227 1.63z" transform="translate(18 54.224)"/>
                <g fill-rule="nonzero">
                    <path fill="#ADD9FC" d="M2.91 51.34v1.222c.408 1.222.408 3.26 1.226 5.704l16.773-5.297 17.182 4.89 2.045-7.335-20.045-6.519L2.909 51.34z" transform="translate(18 54.224) translate(60.364)"/>
                    <path fill="#26303B" d="M39.318 60.303l2.046-10.594L20.09 43.19.455 49.71 2.5 60.302l17.182-5.297 19.636 5.297zM2.091 52.154l18-5.704 20.454 5.704-1.636 5.297-18.818-5.704L3.318 57.45l-1.227-5.297z" transform="translate(18 54.224) translate(60.364)"/>
                    <path fill="#26303B" d="M21.318 30.967c9.41-1.63 13.91-6.52 13.91-15.076C35.227 4.889 28.681.815 18.863.815c-5.319 0-8.591 1.63-11.046 4.89-2.863 3.259-4.5 7.334-2.863 12.63l2.863-1.222c-1.227-3.667 0-6.52 2.455-9.371 2.454-2.445 4.909-3.667 9-3.667 8.182 0 13.09 2.852 13.09 11.816 0 7.334-4.09 11.001-12.681 12.223h-1.227v15.891h3.272l-.409-13.038z" transform="translate(18 54.224) translate(60.364)"/>
                </g>
            </g>
            <g>
                <path fill="#ADD9FC" d="M0.409 77.416L33.955 150.758 33.955 152.795 109.227 152.795 116.182 66.008 108.409 18.335 111.273 17.113 111.273 0.815 33.955 0 34.364 17.521 33.955 62.341z" transform="translate(84.136 131.64)"/>
                <path stroke="#26303B" stroke-linecap="round" stroke-width="3.038" d="M34.773 152.795L109.227 152.795" transform="translate(84.136 131.64)"/>
                <path stroke="#26303B" stroke-width="3.038" d="M108.818 17.113H36c-1.227 0-2.045-1.222-2.045-2.037V2.037C33.955.815 35.182 0 36 0h72.818c1.227 0 2.046 1.222 2.046 2.037v13.039c.409 1.222-.819 2.037-2.046 2.037z" transform="translate(84.136 131.64)"/>
                <path stroke="#26303B" stroke-width="3.038" d="M56.455 17.113h-6.137c-1.227 0-2.045-1.222-2.045-2.037V3.26c0-1.223 1.227-2.038 2.045-2.038h6.137c1.227 0 2.045 1.223 2.045 2.038v12.223c0 .815-.818 1.63-2.045 1.63zM93.273 17.113h-6.137c-1.227 0-2.045-1.222-2.045-2.037V3.26c0-1.223 1.227-2.038 2.045-2.038h6.137c1.227 0 2.045 1.223 2.045 2.038v12.223c-.409.815-1.227 1.63-2.045 1.63z" transform="translate(84.136 131.64)"/>
                <path stroke="#26303B" stroke-linecap="round" stroke-width="3.038" d="M34.364 17.521L33.955 153.203M108.818 18.335L116.182 65.193M116.182 65.193L109.636 152.795M.409 77.824L35.182 152.795M.409 77.416L34.773 62.341M4.909 84.751L34.364 71.712M93.273 47.672h-40.5c-1.228 0-2.046-1.222-2.046-2.037v-5.297c0-1.222 1.228-2.037 2.046-2.037h40.09c1.228 0 2.046 1.222 2.046 2.037v5.704c0 .815-.818 1.63-1.636 1.63zM34.364 17.521L34.364 152.388M51.955 47.672L51.955 71.712M93.682 47.672L93.682 71.712M51.955 72.119L72.409 87.195M93.273 72.527L72.818 87.603" transform="translate(84.136 131.64)"/>
            </g>
        </g>
    </g>
</svg>