<?xml version="1.0" standalone="no"?>
<svg xmlns:xlink="http://www.w3.org/1999/xlink" id="wave" style="transform:rotate(0deg); transition: 0.3s" viewBox="0 0 1440 100" version="1.1" xmlns="http://www.w3.org/2000/svg"><defs><linearGradient id="sw-gradient-0" x1="0" x2="0" y1="1" y2="0"><stop stop-color="rgba(17, 118, 188, 1)" offset="0%"/><stop stop-color="rgba(17, 118, 188, 1)" offset="100%"/></linearGradient></defs><path style="transform:translate(0, 0px); opacity:1" fill="url(#sw-gradient-0)" d="M0,0L60,0C120,0,240,0,360,15C480,30,600,60,720,63.3C840,67,960,43,1080,31.7C1200,20,1320,20,1440,23.3C1560,27,1680,33,1800,33.3C1920,33,2040,27,2160,20C2280,13,2400,7,2520,15C2640,23,2760,47,2880,51.7C3000,57,3120,43,3240,38.3C3360,33,3480,37,3600,36.7C3720,37,3840,33,3960,38.3C4080,43,4200,57,4320,63.3C4440,70,4560,70,4680,68.3C4800,67,4920,63,5040,55C5160,47,5280,33,5400,26.7C5520,20,5640,20,5760,26.7C5880,33,6000,47,6120,51.7C6240,57,6360,53,6480,45C6600,37,6720,23,6840,26.7C6960,30,7080,50,7200,58.3C7320,67,7440,63,7560,66.7C7680,70,7800,80,7920,85C8040,90,8160,90,8280,90C8400,90,8520,90,8580,90L8640,90L8640,100L8580,100C8520,100,8400,100,8280,100C8160,100,8040,100,7920,100C7800,100,7680,100,7560,100C7440,100,7320,100,7200,100C7080,100,6960,100,6840,100C6720,100,6600,100,6480,100C6360,100,6240,100,6120,100C6000,100,5880,100,5760,100C5640,100,5520,100,5400,100C5280,100,5160,100,5040,100C4920,100,4800,100,4680,100C4560,100,4440,100,4320,100C4200,100,4080,100,3960,100C3840,100,3720,100,3600,100C3480,100,3360,100,3240,100C3120,100,3000,100,2880,100C2760,100,2640,100,2520,100C2400,100,2280,100,2160,100C2040,100,1920,100,1800,100C1680,100,1560,100,1440,100C1320,100,1200,100,1080,100C960,100,840,100,720,100C600,100,480,100,360,100C240,100,120,100,60,100L0,100Z"/></svg>